<svg t="1710484445832" class="icon" viewBox="0 0 1024 1024" version="1.1" xmlns="http://www.w3.org/2000/svg" p-id="10080" width="300" height="300"><path d="M956.48 409.792a71.68 71.68 0 0 0-57.088-51.264l-223.424-41.28-99.84-211.072C564.48 80.64 539.008 64 512 64c-27.328 0-51.968 16.128-64.32 42.048L347.84 317.44l-222.976 42.56a72.128 72.128 0 0 0-57.408 51.264c-8.448 27.072-1.216 57.6 18.56 77.76l160.384 155.712-42.048 226.944v0.192c-4.608 28.352 6.656 57.216 28.48 73.472 21.312 16.32 52.16 18.88 74.88 6.336L512 846.72l202.496 104.768c8.896 4.992 19.392 8.064 30.656 8.448l-4.736 0.064h7.36c14.976 0 29.76-5.12 41.92-14.464a77.44 77.44 0 0 0 28.736-74.24l-40.704-226.56 160.96-157.888c19.2-19.648 26.24-49.984 17.792-77.056" fill="#f4ea2a" p-id="10081"></path></svg>