<svg t="1709800311473" class="icon" viewBox="0 0 1024 1024" version="1.1" xmlns="http://www.w3.org/2000/svg" p-id="4270" width="200" height="200"><path d="M376.234667 922.026667c74.965333 0 135.808-61.226667 135.808-136.661334v-136.661333H376.234667c-74.88 0-135.722667 61.184-135.722667 136.661333s60.842667 136.704 135.722667 136.704z" fill="#00E676" p-id="4271"></path><path d="M240.512 512c0-75.434667 60.842667-136.661333 135.722667-136.661333h135.808v273.365333H376.234667c-74.88 0-135.722667-61.226667-135.722667-136.704z" fill="#7C4DFF" p-id="4272"></path><path d="M240.512 238.677333c0-75.434667 60.842667-136.704 135.722667-136.704h135.808v273.365334H376.234667c-74.88 0-135.722667-61.226667-135.722667-136.661334z" fill="#F4511E" p-id="4273"></path><path d="M512 101.973333h135.765333c74.922667 0 135.765333 61.269333 135.765334 136.704s-60.842667 136.661333-135.765334 136.661334H512z" fill="#FF8A65" p-id="4274"></path><path d="M783.530667 512c0 75.477333-60.842667 136.704-135.765334 136.704S512 587.477333 512 512s60.842667-136.661333 135.765333-136.661333 135.765333 61.226667 135.765334 136.661333z" fill="#29B6F6" p-id="4275"></path></svg><svg t="1709801928411" class="icon" viewBox="0 0 1024 1024" version="1.1" xmlns="http://www.w3.org/2000/svg" p-id="7528" width="200" height="200"><path d="M341.333333 1024c94.208 0 170.666667-76.458667 170.666667-170.666667v-170.666666H341.333333c-94.208 0-170.666667 76.458667-170.666666 170.666666s76.458667 170.666667 170.666666 170.666667z" fill="#0ACF83" p-id="7529"></path><path d="M170.666667 512c0-94.208 76.458667-170.666667 170.666666-170.666667h170.666667v341.333334H341.333333c-94.208 0-170.666667-76.458667-170.666666-170.666667z" fill="#A259FF" p-id="7530"></path><path d="M170.666667 170.666667c0-94.208 76.458667-170.666667 170.666666-170.666667h170.666667v341.333333H341.333333C247.125333 341.333333 170.666667 264.874667 170.666667 170.666667z" fill="#F24E1E" p-id="7531"></path><path d="M512 0h170.666667c94.208 0 170.666667 76.458667 170.666666 170.666667s-76.458667 170.666667-170.666666 170.666666h-170.666667V0z" fill="#FF7262" p-id="7532"></path><path d="M853.333333 512c0 94.208-76.458667 170.666667-170.666666 170.666667s-170.666667-76.458667-170.666667-170.666667 76.458667-170.666667 170.666667-170.666667 170.666667 76.458667 170.666666 170.666667z" fill="#1ABCFE" p-id="7533"></path></svg><svg t="1709801928411" class="icon" viewBox="0 0 1024 1024" version="1.1" xmlns="http://www.w3.org/2000/svg" p-id="7528" width="200" height="200"><path d="M341.333333 1024c94.208 0 170.666667-76.458667 170.666667-170.666667v-170.666666H341.333333c-94.208 0-170.666667 76.458667-170.666666 170.666666s76.458667 170.666667 170.666666 170.666667z" fill="#0ACF83" p-id="7529"></path><path d="M170.666667 512c0-94.208 76.458667-170.666667 170.666666-170.666667h170.666667v341.333334H341.333333c-94.208 0-170.666667-76.458667-170.666666-170.666667z" fill="#A259FF" p-id="7530"></path><path d="M170.666667 170.666667c0-94.208 76.458667-170.666667 170.666666-170.666667h170.666667v341.333333H341.333333C247.125333 341.333333 170.666667 264.874667 170.666667 170.666667z" fill="#F24E1E" p-id="7531"></path><path d="M512 0h170.666667c94.208 0 170.666667 76.458667 170.666666 170.666667s-76.458667 170.666667-170.666666 170.666666h-170.666667V0z" fill="#FF7262" p-id="7532"></path><path d="M853.333333 512c0 94.208-76.458667 170.666667-170.666666 170.666667s-170.666667-76.458667-170.666667-170.666667 76.458667-170.666667 170.666667-170.666667 170.666667 76.458667 170.666666 170.666667z" fill="#1ABCFE" p-id="7533"></path></svg>