<svg t="1710227459627" class="icon" viewBox="0 0 1024 1024" version="1.1" xmlns="http://www.w3.org/2000/svg" p-id="2739" width="200" height="200"><path d="M772.76042562 129.87106438l18.71064469-63.80809594c-17.75112469-4.79760094-36.46176937 5.27736094-41.73913125 22.54872562-4.79760094 18.23088469 5.27736094 36.46176937 23.02848657 41.25937031zM273.8099 89.09145406c-5.27736094-17.75112469-23.50824563-27.82608656-41.73913031-22.54872562l18.71064469 63.80809594c17.75112469-5.27736094 27.82608656-23.50824563 23.02848562-41.25937032z" fill="#2c2c2c" p-id="2740"></path><path d="M105.89385875 387.98200906c-29.2653675-115.14242906 44.61769125-229.80509719 144.88755563-258.11094468L232.07076969 66.54272844C96.77841594 104.44377781 2.2656725 254.12893531 40.64648188 403.81409281c4.31784094 17.75112469 22.54872563 28.7856075 40.77961031 24.46776656 17.75112469-4.31784094 28.7856075-22.06896563 24.46776656-40.29985031zM108.29265875 748.76161906zM918.60750125 753.07946c-1.91904094-13.43328375-7.19640187-26.38680656-15.35232375-37.42128938l-92.5937025-131.45427281V392.77961l-0.47976-3.35832094-33.10344844 6.71664188 33.10344844-6.71664188v-0.47976c-2.39880094-9.59520281-4.79760094-18.71064469-7.67616281-27.82608656-7.19640187-22.54872563-16.31184375-44.13793125-27.34632656-65.24737688-23.98800562-45.09745125-63.80809594-98.83058438-127.13643188-132.41379281C647.06327375 90.530735 587.09325875 32 513.2102 32c-73.88305875 0-133.85307375 58.530735-134.33283375 131.45427281C315.06927031 197.03748125 275.72894094 250.77061437 251.74093531 295.86806563c-11.03448281 20.62968563-20.14992469 42.69865031-27.3463275 65.24737687-2.87856094 9.59520281-5.75712188 18.71064469-7.67616187 28.78560656l32.62368844 6.71664188-32.62368844-6.23688094-0.47976 1.43928v1.43928s4.31784094 0.47976 6.71664187 0.47976l-6.71664187-0.47976-19.67016469 191.42428781L118.36762156 719.97601156c-5.27736094 8.63568187-8.63568187 18.23088469-10.07496281 28.3058475l66.68665688 9.59520282c0.47976-1.91904094 1.43928-3.83808094 2.39880093-5.27736188l81.07945969-142.00899562 3.35832094-6.23688094 0.47976-6.71664188-33.58320844-3.35832093 33.58320844 3.35832093L281.96582281 401.41529281c0.47976-1.43928 0.47976-2.87856094 0.95952-4.31784187 0.95952-3.83808094 2.39880094-9.59520281 4.79760094-16.31184375 4.79760094-13.91304375 11.99400281-33.58320844 23.02848563-54.69265406C333.300155 283.87406281 369.76192437 238.29685156 425.41409844 214.30884594l-13.43328375-30.2248875L425.41409844 214.30884594l20.14992468-8.63568282v-41.25937031c0-36.46176937 30.2248875-66.20689687 67.16641688-66.20689594s67.16641687 29.7451275 67.16641687 66.20689594v41.25937031l20.14992469 8.63568282 13.43328375-30.2248875c-6.71664188 15.35232375-13.43328375 30.2248875-13.43328375 30.2248875 56.13193406 23.98800562 92.11394344 69.56521781 114.66266906 111.78410718 11.03448281 21.10944562 18.71064469 40.29985031 23.02848563 54.69265407 1.91904094 6.23688187 3.83808094 12.47376281 5.27736187 19.19040468V605.31334344l5.75712094 8.63568187 27.8260875-18.71064469-27.8260875 18.71064469 98.35082438 139.61019469c1.91904094 1.91904094 2.87856094 4.31784094 3.35832093 7.19640188 1.43928 12.47376281-1.43928 21.10944562-4.79760093 25.90704656-2.39880094 3.83808094-6.71664188 6.71664188-15.83208375 6.71664187H195.12924031c-9.11544188 0-13.43328375-3.35832094-16.31184375-7.19640187-3.35832094-5.27736094-6.23688187-14.39280375-4.31784093-27.82608656l-66.68665688-9.59520282c-3.83808094 25.42728656 0 52.29385312 14.87256375 73.88305875 15.35232375 23.02848563 40.77961031 36.94152937 71.96401781 36.94152938h144.88755657c15.35232375 75.32233875 83.47826062 132.41379281 164.55772125 132.41379281s149.2053975-56.61169406 164.55772125-132.41379281h161.67916031c30.2248875 0 55.17241406-12.95352281 70.52473781-35.02248938 16.31184375-21.10944562 20.62968563-47.01649219 17.75112375-71.48425781z m-414.03298312 172.23388312a100.74962531 100.74962531 0 0 1-94.99250344-66.20689593h189.98500687c-13.91304375 38.38080937-51.33433313 66.20689687-94.99250343 66.20689593zM791.47107031 66.54272844l-18.71064468 63.80809593c100.26986531 28.3058475 174.15292313 142.96851563 144.88755562 258.11094469-4.31784094 17.75112469 7.19640187 35.50224844 24.94752656 39.82009031 17.75112469 3.83808094 35.50224844-6.23688187 40.29985032-23.50824656l-16.31184469-3.83808094 16.31184469 3.83808094c38.38080937-150.6446775-56.13193406-300.329835-191.42428782-338.23088437z" fill="#2c2c2c" p-id="2741"></path></svg>